<svg width="64" height="64" viewBox="0 0 64 64" fill="none" xmlns="http://www.w3.org/2000/svg">
<rect width="64" height="64" rx="16" fill="url(#paint0_linear_424_1247)"/>
<path fill-rule="evenodd" clip-rule="evenodd" d="M12.7344 18.2694L12.888 38.5128C16.7303 39.3649 19.5716 40.1036 23.0478 41.404C25.0092 42.138 30.7612 44.7339 31.6195 45.8716L31.7011 27.7397C31.4442 24.5761 17.1937 17.7572 12.7344 18.2706V18.2694Z" fill="white"/>
<path fill-rule="evenodd" clip-rule="evenodd" d="M32.5303 27.6965L32.5603 45.8935C32.5603 45.9309 34.164 45.0511 35.9513 44.0809V23.7664C33.9095 25.015 32.5279 26.3624 32.5303 27.6965ZM38.4396 42.7432C39.4227 42.2225 40.2341 41.8067 40.5726 41.673C41.5521 41.2837 42.5064 40.9595 43.4451 40.6715V20.3823C41.7418 20.9885 40.0085 21.6815 38.4396 22.4323V42.7444V42.7432ZM45.9334 39.9592C47.7291 39.4711 49.4936 39.018 51.2894 38.378L51.341 18.1045C50.0926 18.3491 48.1288 18.8553 45.9334 19.5471V39.9592Z" fill="white"/>
<path fill-rule="evenodd" clip-rule="evenodd" d="M8.0364 24.5783L8.00879 43.0826C16.895 42.8091 20.5284 44.3758 27.9142 45.3894L26.1881 44.4481C22.97 43.0031 19.2261 41.7087 15.8495 40.8603C10.5151 39.5189 11.2317 41.3375 11.1969 36.2529L11.1789 24.0059L8.0376 24.5783H8.0364Z" fill="white"/>
<path fill-rule="evenodd" clip-rule="evenodd" d="M55.9628 24.9543L55.9904 43.4586C47.1042 43.185 43.4707 44.7518 36.085 45.7653L37.8111 44.8241C41.0292 43.3791 44.7731 42.0847 48.1497 41.2363C53.4852 39.8949 52.7674 41.7135 52.8022 36.6289L52.8214 24.3818L55.9628 24.9543Z" fill="white"/>
<defs>
<linearGradient id="paint0_linear_424_1247" x1="32" y1="64" x2="32" y2="5.36046e-07" gradientUnits="userSpaceOnUse">
<stop stop-color="#1A78E6"/>
<stop offset="1" stop-color="#2AAAED"/>
</linearGradient>
</defs>
</svg>
