<svg width="46" height="32" viewBox="0 0 46 32" fill="none" xmlns="http://www.w3.org/2000/svg">
<path fill-rule="evenodd" clip-rule="evenodd" d="M0.0559622 15.0164C0.256339 17.4198 1.57235 20.8671 2.73349 21.9189C3.91475 21.5411 5.16426 20.5463 7.22666 21.0748C5.88877 22.6964 4.93501 24.2864 4.53251 25.744C16.9349 35.0403 47.4814 35.4023 45.944 16.9842C45.7437 14.5808 44.4276 11.1334 43.2665 10.0816C42.0852 10.4594 40.8357 11.4542 38.7733 10.9248C40.1112 9.30329 41.065 7.7133 41.4675 6.25566C29.0651 -3.04061 -1.48143 -3.40173 0.0559622 15.0164Z" fill="url(#paint0_linear_356_1249)"/>
<path fill-rule="evenodd" clip-rule="evenodd" d="M8.84719 5.47115L8.95919 20.1939C11.7601 20.8136 13.8312 21.3509 16.3653 22.2967C17.795 22.8304 21.9881 24.7185 22.6137 25.5459L22.6732 12.3588C22.486 10.0579 12.0979 5.09776 8.84719 5.47115Z" fill="white"/>
<path fill-rule="evenodd" clip-rule="evenodd" d="M23.2779 12.3274L23.2997 25.5619C23.2997 25.589 24.4688 24.9492 25.7716 24.2436V9.46913C24.2833 10.3772 23.2761 11.3571 23.2779 12.3274ZM27.5855 23.2707C28.3022 22.892 28.8937 22.5896 29.1404 22.4923C29.8544 22.2092 30.5501 21.9734 31.2343 21.7639V7.00789C29.9927 7.44877 28.7292 7.95277 27.5855 8.49883V23.2707ZM33.0482 21.2459C34.3572 20.8909 35.6435 20.5614 36.9525 20.0959L36.9901 5.35128C36.0801 5.52921 34.6486 5.89735 33.0482 6.40046V21.2459Z" fill="white"/>
<path fill-rule="evenodd" clip-rule="evenodd" d="M5.42242 10.0591L5.4023 23.517C11.88 23.3181 14.5286 24.4575 19.9126 25.1947L18.6543 24.5101C16.3084 23.4592 13.5792 22.5178 11.1178 21.9007C7.22931 20.9252 7.75169 22.2478 7.72632 18.5498L7.71319 9.64273L5.42242 10.0591Z" fill="white"/>
<path fill-rule="evenodd" clip-rule="evenodd" d="M40.3589 10.3333L40.379 23.7912C33.9013 23.5923 31.2527 24.7317 25.8687 25.4689L27.127 24.7843C29.4729 23.7334 32.202 22.792 34.6634 22.175C38.5529 21.1994 38.0296 22.5221 38.055 18.8241L38.069 9.91696L40.3589 10.3333Z" fill="white"/>
<defs>
<linearGradient id="paint0_linear_356_1249" x1="20.7333" y1="25.7277" x2="20.7333" y2="0.00034043" gradientUnits="userSpaceOnUse">
<stop stop-color="#00519A"/>
<stop offset="1" stop-color="#00ADE5"/>
</linearGradient>
</defs>
</svg>
