<svg width="150" height="32" viewBox="0 0 150 32" fill="none" xmlns="http://www.w3.org/2000/svg">
<path fill-rule="evenodd" clip-rule="evenodd" d="M0.0559622 15.0164C0.256339 17.4198 1.57235 20.8671 2.73349 21.9189C3.91475 21.5411 5.16426 20.5463 7.22666 21.0748C5.88877 22.6964 4.93501 24.2864 4.53251 25.744C16.9349 35.0403 47.4814 35.4023 45.944 16.9842C45.7437 14.5808 44.4276 11.1334 43.2665 10.0816C42.0852 10.4594 40.8357 11.4542 38.7733 10.9248C40.1112 9.30329 41.065 7.7133 41.4675 6.25566C29.0651 -3.04061 -1.48143 -3.40173 0.0559622 15.0164Z" fill="url(#paint0_linear_356_1240)"/>
<path fill-rule="evenodd" clip-rule="evenodd" d="M8.84719 5.47115L8.95919 20.1939C11.7601 20.8136 13.8312 21.3509 16.3653 22.2967C17.795 22.8304 21.9881 24.7185 22.6137 25.5459L22.6732 12.3588C22.486 10.0579 12.0979 5.09776 8.84719 5.47115Z" fill="white"/>
<path fill-rule="evenodd" clip-rule="evenodd" d="M23.2779 12.3274L23.2997 25.5619C23.2997 25.589 24.4688 24.9492 25.7716 24.2436V9.46913C24.2833 10.3772 23.2761 11.3571 23.2779 12.3274ZM27.5855 23.2707C28.3022 22.892 28.8937 22.5896 29.1404 22.4923C29.8544 22.2092 30.5501 21.9734 31.2343 21.7639V7.00789C29.9927 7.44877 28.7292 7.95277 27.5855 8.49883V23.2707ZM33.0482 21.2459C34.3572 20.8909 35.6435 20.5614 36.9525 20.0959L36.9901 5.35128C36.0801 5.52921 34.6486 5.89735 33.0482 6.40046V21.2459Z" fill="white"/>
<path fill-rule="evenodd" clip-rule="evenodd" d="M5.42242 10.0591L5.4023 23.517C11.88 23.3181 14.5286 24.4575 19.9126 25.1947L18.6543 24.5101C16.3084 23.4592 13.5792 22.5178 11.1178 21.9007C7.22931 20.9252 7.75169 22.2478 7.72632 18.5498L7.71319 9.64273L5.42242 10.0591Z" fill="white"/>
<path fill-rule="evenodd" clip-rule="evenodd" d="M40.3589 10.3333L40.379 23.7912C33.9013 23.5923 31.2527 24.7317 25.8687 25.4689L27.127 24.7843C29.4729 23.7334 32.202 22.792 34.6634 22.175C38.5529 21.1994 38.0296 22.5221 38.055 18.8241L38.069 9.91696L40.3589 10.3333Z" fill="white"/>
<path d="M61.1786 20.1631C62.2373 20.8128 63.1384 21.2642 63.8812 21.5273C64.6194 21.7876 65.3414 21.9174 66.0481 21.9174C66.7584 21.9174 67.3301 21.7588 67.764 21.4462C68.1935 21.1335 68.4086 20.7317 68.4086 20.2406C68.4086 19.5378 67.6416 18.7422 66.1039 17.8647C65.8564 17.7223 65.6655 17.6088 65.5323 17.5322L64.3673 16.8745C63.2357 16.2329 62.3957 15.5058 61.852 14.6976C61.3046 13.8894 61.0327 12.9722 61.0327 11.9487C61.0327 10.5602 61.5558 9.42313 62.6028 8.53384C63.6453 7.64454 64.9966 7.20215 66.6522 7.20215C67.2644 7.20215 67.9261 7.27513 68.6364 7.41749C69.3503 7.55985 70.1416 7.7833 71.014 8.08333V12.1234C70.1821 11.6036 69.3953 11.2017 68.649 10.9179C67.9027 10.6332 67.2698 10.4917 66.7458 10.4917C66.1651 10.4917 65.7114 10.6179 65.3783 10.8656C65.0452 11.1134 64.8787 11.4549 64.8787 11.8811C64.8787 12.1811 64.9759 12.4622 65.1749 12.7217C65.3738 12.9857 65.67 13.2218 66.0679 13.4362L68.0881 14.5535C69.7797 15.4914 70.9159 16.3564 71.5001 17.1484C72.0844 17.9439 72.377 18.8828 72.377 19.9703C72.377 21.6516 71.8053 23.0121 70.6611 24.0474C69.5123 25.0826 67.9954 25.5989 66.1003 25.5989C65.4593 25.5989 64.7616 25.5295 64.0072 25.3953C63.2564 25.261 62.4245 25.0502 61.5243 24.7655L61.1795 20.1649L61.1786 20.1631ZM75.3677 25.0358V7.7851H85.9819V11.3423H79.3604V14.4607H85.033V17.9935H79.3604V21.4047H86.0791V25.0349H75.3677V25.0358ZM89.2156 25.0358V7.22467H89.609L100.341 17.2916V7.7851H104.138V25.6935H103.781L93.013 15.6266V25.0349H89.2156V25.0358ZM107.299 20.1631C108.358 20.8128 109.259 21.2642 110.002 21.5273C110.74 21.7876 111.462 21.9174 112.169 21.9174C112.879 21.9174 113.451 21.7588 113.885 21.4462C114.314 21.1335 114.529 20.7317 114.529 20.2406C114.529 19.5378 113.762 18.7422 112.225 17.8647C111.977 17.7223 111.786 17.6088 111.653 17.5322L110.488 16.8745C109.356 16.2329 108.516 15.5058 107.973 14.6976C107.425 13.8894 107.153 12.9722 107.153 11.9487C107.153 10.5602 107.677 9.42313 108.724 8.53384C109.766 7.64454 111.117 7.20215 112.773 7.20215C113.385 7.20215 114.047 7.27513 114.757 7.41749C115.471 7.55985 116.262 7.7833 117.135 8.08333V12.1234C116.303 11.6036 115.516 11.2017 114.77 10.9179C114.023 10.6332 113.391 10.4917 112.867 10.4917C112.286 10.4917 111.832 10.6179 111.499 10.8656C111.166 11.1134 110.999 11.4549 110.999 11.8811C110.999 12.1811 111.097 12.4622 111.296 12.7217C111.495 12.9857 111.791 13.2218 112.189 13.4362L114.209 14.5535C115.9 15.4914 117.037 16.3564 117.621 17.1484C118.205 17.9439 118.498 18.8828 118.498 19.9703C118.498 21.6516 117.926 23.0121 116.782 24.0474C115.633 25.0826 114.116 25.5989 112.221 25.5989C111.58 25.5989 110.882 25.5295 110.128 25.3953C109.377 25.261 108.545 25.0502 107.645 24.7655L107.3 20.1649L107.299 20.1631ZM125.383 7.786V17.2637C125.383 18.7864 125.663 19.928 126.223 20.683C126.779 21.4426 127.627 21.8201 128.764 21.8201C129.855 21.8201 130.691 21.4669 131.263 20.7605C131.839 20.0577 132.127 19.0306 132.127 17.6827V7.786H135.803V17.6827C135.803 20.1721 135.165 22.1165 133.888 23.5095C132.614 24.9024 130.84 25.5971 128.573 25.5971C126.281 25.5971 124.499 24.9069 123.225 23.5257C121.955 22.1453 121.318 20.2037 121.318 17.7061V7.786H125.384H125.383ZM138.802 20.1631C139.86 20.8128 140.761 21.2642 141.504 21.5273C142.242 21.7876 142.964 21.9174 143.671 21.9174C144.381 21.9174 144.953 21.7588 145.387 21.4462C145.816 21.1335 146.032 20.7317 146.032 20.2406C146.032 19.5378 145.265 18.7422 143.727 17.8647C143.479 17.7223 143.288 17.6088 143.155 17.5322L141.99 16.8745C140.859 16.2329 140.019 15.5058 139.475 14.6976C138.928 13.8894 138.656 12.9722 138.656 11.9487C138.656 10.5602 139.179 9.42313 140.226 8.53384C141.268 7.64454 142.62 7.20215 144.275 7.20215C144.887 7.20215 145.549 7.27513 146.259 7.41749C146.973 7.55985 147.765 7.7833 148.637 8.08333V12.1234C147.805 11.6036 147.018 11.2017 146.272 10.9179C145.526 10.6332 144.893 10.4917 144.369 10.4917C143.788 10.4917 143.334 10.6179 143.001 10.8656C142.668 11.1134 142.502 11.4549 142.502 11.8811C142.502 12.1811 142.599 12.4622 142.798 12.7217C142.997 12.9857 143.293 13.2218 143.691 13.4362L145.711 14.5535C147.403 15.4914 148.539 16.3564 149.123 17.1484C149.707 17.9439 150 18.8828 150 19.9703C150 21.6516 149.428 23.0121 148.284 24.0474C147.135 25.0826 145.618 25.5989 143.723 25.5989C143.082 25.5989 142.385 25.5295 141.63 25.3953C140.879 25.261 140.047 25.0502 139.147 24.7655L138.802 20.1649L138.802 20.1631Z" fill="white"/>
<defs>
<linearGradient id="paint0_linear_356_1240" x1="20.7333" y1="25.7277" x2="20.7333" y2="0.00034043" gradientUnits="userSpaceOnUse">
<stop stop-color="#00519A"/>
<stop offset="1" stop-color="#00ADE5"/>
</linearGradient>
</defs>
</svg>
